<?xml version="1.0" encoding="utf-8"?>
<!-- Generator: Adobe Illustrator 16.0.4, SVG Export Plug-In . SVG Version: 6.00 Build 0)  -->
<!DOCTYPE svg PUBLIC "-//W3C//DTD SVG 1.1//EN" "http://www.w3.org/Graphics/SVG/1.1/DTD/svg11.dtd">
<svg version="1.1" id="Layer_1" xmlns="http://www.w3.org/2000/svg" xmlns:xlink="http://www.w3.org/1999/xlink" x="0px" y="0px"
	 width="960px" height="560px" viewBox="0 0 960 560" enable-background="new 0 0 960 560" xml:space="preserve">
<g>
	<circle fill="#000507" stroke="#000305" stroke-width="4.4008" stroke-miterlimit="10" cx="479.842" cy="279.885" r="76.953"/>
	<circle fill="#FFFFFF" stroke="#FFFFFF" stroke-width="5" stroke-miterlimit="10" cx="479.548" cy="281.396" r="56.659"/>
	<path fill="#050200" d="M479.547,215.17c-36.022,0-65.226,29.203-65.226,65.226c0,36.024,29.203,65.227,65.226,65.227
		c36.024,0,65.228-29.203,65.228-65.227C544.774,244.374,515.571,215.17,479.547,215.17z M505.613,307.691
		c-8.277,7.338-16.837,14.928-23.834,25.504l-2.347,3.551l-2.432-3.494c-7.227-10.396-15.981-18.064-23.704-24.83
		c-13.224-11.584-24.642-21.59-24.642-40.287c0-15.44,12.561-27.999,27.998-27.999c9.055,0,17.513,4.461,22.72,11.693
		c5.203-7.231,13.661-11.693,22.716-11.693c15.438,0,27.998,12.559,27.998,27.999C530.087,285.994,518.201,296.535,505.613,307.691z
		"/>
</g>
</svg>
