<?xml version="1.0" encoding="utf-8"?>
<!-- Generator: Adobe Illustrator 16.0.4, SVG Export Plug-In . SVG Version: 6.00 Build 0)  -->
<!DOCTYPE svg PUBLIC "-//W3C//DTD SVG 1.1//EN" "http://www.w3.org/Graphics/SVG/1.1/DTD/svg11.dtd">
<svg version="1.1" id="Layer_1" xmlns="http://www.w3.org/2000/svg" xmlns:xlink="http://www.w3.org/1999/xlink" x="0px" y="0px"
	 width="960px" height="560px" viewBox="0 0 960 560" enable-background="new 0 0 960 560" xml:space="preserve">
<g>
	<circle fill="#FF4545" cx="479.842" cy="279.885" r="76.953"/>
	<path fill="#FF4545" d="M502.162,245.178c-8.559,0-16.449,5.029-20.104,12.815l-2.612,5.568l-2.613-5.567
		c-3.657-7.786-11.549-12.816-20.107-12.816c-12.254,0-22.224,9.968-22.224,22.225c0,16.08,10.005,24.846,22.672,35.942
		c7.144,6.259,15.142,13.266,22.218,22.551c6.96-9.513,15.15-16.771,22.465-23.256c12.587-11.158,22.528-19.974,22.528-35.237
		C524.386,255.146,514.418,245.178,502.162,245.178z"/>
	<path fill="#FFB450" d="M479.621,214.438c-36.023,0-65.226,29.202-65.226,65.226s29.203,65.226,65.226,65.226
		c36.024,0,65.226-29.202,65.226-65.226S515.645,214.438,479.621,214.438z M505.688,306.959
		c-8.277,7.338-16.838,14.927-23.834,25.503l-2.348,3.551l-2.43-3.494c-7.228-10.396-15.982-18.064-23.705-24.829
		c-13.223-11.585-24.642-21.59-24.642-40.287c0-15.439,12.561-27.999,27.998-27.999c9.054,0,17.513,4.462,22.72,11.693
		c5.203-7.23,13.661-11.693,22.715-11.693c15.439,0,27.998,12.56,27.998,27.999C530.159,285.263,518.275,295.802,505.688,306.959z"
		/>
</g>
</svg>
