<?xml version="1.0" encoding="utf-8"?>
<!-- Generator: Adobe Illustrator 16.0.4, SVG Export Plug-In . SVG Version: 6.00 Build 0)  -->
<!DOCTYPE svg PUBLIC "-//W3C//DTD SVG 1.1//EN" "http://www.w3.org/Graphics/SVG/1.1/DTD/svg11.dtd">
<svg version="1.1" id="Layer_1" xmlns="http://www.w3.org/2000/svg" xmlns:xlink="http://www.w3.org/1999/xlink" x="0px" y="0px"
	 width="960px" height="560px" viewBox="0 0 960 560" enable-background="new 0 0 960 560" xml:space="preserve">
<g>
	<circle fill="none" stroke="#FF4545" stroke-width="12" stroke-miterlimit="10" cx="479.842" cy="279.885" r="76.953"/>
	<path fill="none" d="M548.774,280.821c0,38.79-31.538,70.235-70.442,70.235s-70.443-31.445-70.443-70.235
		c0-38.786,31.539-70.232,70.443-70.232S548.774,242.035,548.774,280.821z"/>
	<path id="path2438_2_" fill="none" stroke="#FF4545" stroke-width="5.855" stroke-linecap="round" d="M458.667,331.828V237.14"/>
	<path id="path2440_2_" fill="none" stroke="#FF4545" stroke-width="3.3412" stroke-linejoin="round" d="M460.33,240.466
		c4.979,1.969,11.363,0.609,15.519,1.739c5.307,1.442,7.649,2.156,12.458,2.312c5.821,0.189,8.519-0.275,14.469-0.441
		c4.057-0.113,10.005-0.476,15.55-2.273c-7.283,13.442-3.542,22.986,3.741,36.428c-12.857,4.12-28.352,0.98-37.611,0.857
		c-8.724-0.116-11.169,3.024-24.125-0.857V240.466z"/>
	
		<text transform="matrix(1 0 0 1 474 333)" fill="#FF4545" stroke="#FF4545" stroke-width="3" stroke-miterlimit="10" font-family="'MyriadPro-Regular'" font-size="63">6</text>
</g>
</svg>
