<?xml version="1.0" encoding="utf-8"?>
<!-- Generator: Adobe Illustrator 16.0.4, SVG Export Plug-In . SVG Version: 6.00 Build 0)  -->
<!DOCTYPE svg PUBLIC "-//W3C//DTD SVG 1.1//EN" "http://www.w3.org/Graphics/SVG/1.1/DTD/svg11.dtd">
<svg version="1.1" id="Layer_1" xmlns="http://www.w3.org/2000/svg" xmlns:xlink="http://www.w3.org/1999/xlink" x="0px" y="0px"
	 width="960px" height="560px" viewBox="0 0 960 560" enable-background="new 0 0 960 560" xml:space="preserve">
<g>
	<circle fill="#FFFFFF" cx="479.848" cy="272.739" r="65.15"/>
	<circle fill="#000507" stroke="#000305" stroke-width="4.4008" stroke-miterlimit="10" cx="479.842" cy="279.885" r="76.953"/>
	<path fill="#FFFFFF" stroke="#000000" stroke-width="4.0225" stroke-miterlimit="10" d="M550.774,279.821
		c0,38.79-31.538,70.235-70.443,70.235c-38.904,0-70.443-31.445-70.443-70.235c0-38.786,31.539-70.232,70.443-70.232
		C519.236,209.589,550.774,241.035,550.774,279.821z"/>
	<g>
		<polygon fill="#FFFFFF" stroke="#070707" stroke-width="2.9552" stroke-miterlimit="10" points="492.06,284.618 478.132,268.385 
			495.83,253.061 509.757,269.296 		"/>
		<path fill="#FFFFFF" stroke="#070707" stroke-width="3.0559" stroke-miterlimit="10" d="M499.367,236.994
			c6.781-5.872,12.055,2.004,19.63,10.835s13.008,14.505,6.227,20.374c-6.781,5.872-18.418,3.473-25.993-5.357
			C491.655,254.014,492.585,242.865,499.367,236.994z"/>
		<path fill="#FFFFFF" stroke="#070707" stroke-width="2.1213" stroke-miterlimit="10" d="M435,317.59l43.343-32.162
			c1.331-1.12,2-2.522,1.497-3.125l-1.374-1.646c-0.506-0.605-1.996-0.187-3.326,0.938L435,317.59"/>
		<path fill="#FFFFFF" stroke="#070707" stroke-width="3.5932" stroke-miterlimit="10" d="M492.229,307.618
			c-9.078,7.859-16.429-3.029-26.935-15.272c-10.505-12.244-18.023-20.125-8.943-27.982c9.079-7.861,24.953-4.307,35.457,7.938
			C502.312,284.545,501.311,299.756,492.229,307.618z"/>
	</g>
</g>
</svg>
