<?xml version="1.0" encoding="utf-8"?>
<!-- Generator: Adobe Illustrator 16.0.4, SVG Export Plug-In . SVG Version: 6.00 Build 0)  -->
<!DOCTYPE svg PUBLIC "-//W3C//DTD SVG 1.1//EN" "http://www.w3.org/Graphics/SVG/1.1/DTD/svg11.dtd">
<svg version="1.1" id="Layer_1" xmlns="http://www.w3.org/2000/svg" xmlns:xlink="http://www.w3.org/1999/xlink" x="0px" y="0px"
	 width="960px" height="560px" viewBox="0 0 960 560" enable-background="new 0 0 960 560" xml:space="preserve">
<g>
	<circle fill="#FF4545" cx="480.073" cy="280.115" r="79.184"/>
	<circle fill="#FFB450" cx="480.078" cy="279.966" r="67.039"/>
	<g>
		<polygon fill="#FF4545" stroke="#FFFFFF" stroke-width="3.087" stroke-miterlimit="10" points="493.674,286.016 479.342,269.311 
			497.554,253.543 511.885,270.249 		"/>
		<path fill="#FF4545" stroke="#FFFFFF" stroke-width="3.087" stroke-miterlimit="10" d="M501.193,237.011
			c6.978-6.043,12.404,2.062,20.199,11.148s13.385,14.927,6.406,20.966c-6.978,6.042-18.951,3.573-26.746-5.514
			C493.258,254.523,494.214,243.052,501.193,237.011z"/>
		<path fill="#FF4545" stroke="#FFFFFF" stroke-width="3.087" stroke-miterlimit="10" d="M434.96,319.942l44.599-33.094
			c1.37-1.152,2.058-2.597,1.541-3.216l-1.414-1.693c-0.521-0.624-2.054-0.192-3.423,0.964L434.96,319.942"/>
		<path fill="#FF4545" stroke="#FFFFFF" stroke-width="3.087" stroke-miterlimit="10" d="M493.848,309.683
			c-9.34,8.087-16.904-3.117-27.714-15.716c-10.81-12.6-18.546-20.708-9.203-28.793c9.343-8.09,25.677-4.432,36.486,8.168
			C504.225,285.939,503.193,301.592,493.848,309.683z"/>
	</g>
</g>
</svg>
