<?xml version="1.0" encoding="utf-8"?>
<!-- Generator: Adobe Illustrator 16.0.4, SVG Export Plug-In . SVG Version: 6.00 Build 0)  -->
<!DOCTYPE svg PUBLIC "-//W3C//DTD SVG 1.1//EN" "http://www.w3.org/Graphics/SVG/1.1/DTD/svg11.dtd">
<svg version="1.1" id="Layer_1" xmlns="http://www.w3.org/2000/svg" xmlns:xlink="http://www.w3.org/1999/xlink" x="0px" y="0px"
	 width="960px" height="560px" viewBox="0 0 960 560" enable-background="new 0 0 960 560" xml:space="preserve">
<g>
	<circle fill="#FFFFFF" cx="480.848" cy="272.739" r="65.15"/>
	<circle fill="#000507" stroke="#000305" stroke-width="4" stroke-miterlimit="10" cx="479.842" cy="279.885" r="76.953"/>
	<path fill="#FFFFFF" stroke="#000000" stroke-width="11" stroke-miterlimit="10" d="M551.774,279.821
		c0,38.79-31.538,70.235-70.442,70.235s-70.443-31.445-70.443-70.235c0-38.786,31.539-70.232,70.443-70.232
		S551.774,241.035,551.774,279.821z"/>
	<path fill="#FFFFFF" stroke="#020100" stroke-width="4" stroke-miterlimit="10" d="M479.956,210.459
		c-38.497,0-69.706,31.209-69.706,69.706s31.209,69.706,69.706,69.706s69.706-31.209,69.706-69.706S518.453,210.459,479.956,210.459
		z M497.231,301.821c-6.023,2.608-12.93,4.093-20.271,4.093c-23.418,0-42.401-15.084-42.401-33.688
		c0-18.605,18.983-33.688,42.401-33.688c23.419,0,42.401,15.083,42.401,33.688c0,8.756-4.21,16.734-11.105,22.726
		c0.375,2.137,1.027,4.361,2.141,6.485c4.362,8.3,14.943,15.138,14.943,15.138S509.114,306.928,497.231,301.821z"/>
</g>
</svg>
